<svg width="351" height="46" viewBox="0 0 351 46" fill="none" xmlns="http://www.w3.org/2000/svg">
<g clip-path="url(#clip0_782_2542)">
<path d="M222.83 14.8736C218.761 14.8736 216.727 16.9301 216.727 21.0431V25.4117C216.727 29.219 218.541 31.0714 222.319 31.0714H236.053V35.6967H222.573C214.895 35.6967 211.132 31.893 211.132 24.1315V22.5873C211.132 14.3124 215.149 10.2483 223.338 10.2483H225.577C227.355 10.2483 230.153 10.2996 235.24 10.6591L234.833 15.2881C229.899 14.9213 227.105 14.8773 225.577 14.8773H222.83V14.8736ZM86.5544 19.5026C86.5544 13.2671 83.55 10.2483 77.3996 10.2483H63.6658V14.6169H76.8917C79.7945 14.6169 81.2132 16.0584 81.2132 18.9891V31.3245H68.2812C66.7524 31.3245 65.9892 30.553 65.9916 29.01V26.3397C65.9916 24.7942 66.7549 24.0228 68.2812 24.0253H82.2147V19.6566H68.7892C63.3464 19.6566 60.6505 22.382 60.6505 27.884C60.6505 33.1768 63.1433 35.6967 68.2269 35.6967H79.1668C84.1015 35.6967 86.5435 33.2282 86.5435 28.2397L86.5544 19.5026ZM99.0147 19.2422C99.0147 16.1587 100.54 14.6169 103.59 14.6169H111.78V10.2483H103.841C97.0263 10.2483 93.6808 13.6412 93.6808 20.5187V35.4289H99.0219L99.0147 19.2422ZM122.255 32.5092C122.865 34.4606 124.138 35.4436 126.17 35.4436H131.25C133.287 35.4436 134.609 34.4655 135.216 32.5092L142.034 10.2483H136.436L130.242 31.3245H127.19L121.189 10.2447H115.593L122.255 32.5092ZM323.532 21.5567C323.532 13.9493 327.193 10.2483 334.723 10.2483H346.268V14.8736H334.214C330.807 14.8736 329.135 16.5719 329.135 20.0088V25.9216C329.135 29.3658 330.815 31.0567 334.214 31.0567H345.401V3.29388H351V27.4548C351 32.9567 348.304 35.682 342.861 35.682H334.723C327.193 35.682 323.532 31.9811 323.532 24.3737V21.542V21.5567ZM301.155 35.6967C294.337 35.6967 290.995 32.3038 290.995 25.4264V10.263H296.59V26.1893C296.59 29.4905 298.169 31.0751 301.424 31.0751H310.832V10.252H316.428V27.4731C316.428 32.9751 313.732 35.7003 308.289 35.7003L301.155 35.6967ZM278.267 25.9289C278.267 29.3731 276.59 31.0641 273.187 31.0641H266.064C262.657 31.0641 260.984 29.3658 260.984 25.9289V20.0161C260.984 16.5719 262.66 14.8809 266.064 14.8809H273.187C276.594 14.8809 278.267 16.5792 278.267 20.0161V25.9289ZM272.671 35.6967C280.15 35.6967 283.862 31.9407 283.862 24.3847V21.5567C283.862 14.0007 280.15 10.2483 272.671 10.2483H266.568C259.094 10.2483 255.382 14.0007 255.382 21.5567V24.3847C255.382 31.9407 259.094 35.6967 266.568 35.6967H272.671ZM248.262 3.30857H242.667V35.4399H248.255L248.262 3.30857ZM193.207 14.6169C196.473 14.6169 198.037 16.2125 198.037 19.5026V35.4399H203.378V20.5297C203.378 13.6412 200.021 10.2594 193.218 10.2594H186.389C180.946 10.2594 178.254 12.9846 178.254 18.4829V35.4473H183.592V14.6279L193.207 14.6169ZM171.131 19.5026C171.131 13.2671 168.13 10.2483 161.98 10.2483H148.246V14.6169H161.472C164.375 14.6169 165.794 16.0584 165.794 18.9891V31.3245H152.873C151.349 31.3245 150.587 30.553 150.587 29.01V26.3397C150.587 24.7955 151.345 24.0253 152.873 24.0253H166.81V19.6566H153.384C147.941 19.6566 145.249 22.382 145.249 27.884C145.249 33.1768 147.738 35.6967 152.825 35.6967H163.762C168.693 35.6967 171.135 33.2282 171.135 28.2397V19.4989L171.131 19.5026Z" fill="#009595"/>
<path d="M29.4926 4.18149L29.5833 4.36489L44.7504 35.0291C45.2444 36.0656 45.5 37.2017 45.4978 38.3523C45.4983 39.3591 45.3025 40.3562 44.9216 41.2865C44.5406 42.2168 43.9821 43.0621 43.2778 43.7741C42.5735 44.486 41.7372 45.0507 40.8169 45.4358C39.8966 45.8208 38.9103 46.0188 37.9143 46.0184C36.5485 46.0197 35.2077 45.6474 34.0342 44.9409C32.8607 44.2344 31.8982 43.2202 31.2487 42.0056L31.2305 41.9763C31.1616 41.8442 31.1 41.7158 31.0383 41.5801L16.0308 11.2533C15.9872 11.169 15.9437 11.0883 15.9074 11.0076V10.9746C15.4252 9.94259 15.1773 8.81471 15.1817 7.6734C15.1815 6.27957 15.557 4.912 16.2679 3.71771C16.9788 2.52343 17.9982 1.54759 19.2166 0.895005C19.3182 0.839985 19.4234 0.788663 19.525 0.740979C20.5348 0.25872 21.6376 0.00820572 22.7544 0.00738525C24.1483 0.0110395 25.5144 0.402411 26.7029 1.13867C27.8914 1.87493 28.8565 2.92763 29.4926 4.18149Z" fill="#009595"/>
<path d="M15.1672 38.3303C15.1672 40.3638 14.3683 42.314 12.9462 43.7523C11.5241 45.1905 9.59519 45.999 7.58357 46C6.58737 46 5.60095 45.8016 4.68063 45.4161C3.76031 45.0306 2.92416 44.4656 2.21991 43.7534C1.51567 43.0411 0.957131 42.1955 0.576234 41.265C0.195337 40.3345 -0.000498669 39.3373 -2.20202e-05 38.3303C-2.20202e-05 36.2971 0.799001 34.3472 2.2212 32.9096C3.64339 31.4719 5.57228 30.6642 7.58357 30.6642C9.59456 30.6652 11.5229 31.4732 12.9449 32.9106C14.3669 34.3481 15.1662 36.2974 15.1672 38.3303Z" fill="#009595"/>
</g>
<defs>
<clipPath id="clip0_782_2542">
<rect width="351" height="46" fill="white"/>
</clipPath>
</defs>
</svg>
